<svg width="3094" height="1199" viewBox="0 0 3094 1199" fill="none" xmlns="http://www.w3.org/2000/svg">
<path d="M257.293 461.139H248.612C241.999 486.767 230.259 539.014 236.212 542.983C242.164 546.951 246.959 541.329 248.612 538.022C251.588 502.309 255.639 471.886 257.293 461.139Z" stroke="white" stroke-width="25"/>
<path d="M13.0021 112.681C14.2421 143.683 21.9305 231.975 42.7635 337.132C68.8048 468.578 77.4852 569.023 187.851 650.867M13.0021 112.681C12.4944 102.761 104.767 100.281 128.328 105.241C151.889 110.201 208.932 144.923 254.814 194.525C300.696 244.128 278.375 239.167 330.457 288.77C382.54 338.372 554.908 437.577 656.593 503.3C737.941 555.879 947.594 670.708 1042.25 721.551M13.0021 112.681C46.0704 145.336 127.336 218.83 187.851 251.568C263.494 292.49 385.02 373.094 466.864 446.257C530.482 503.128 814.663 684.797 960.408 775.82M187.851 650.867C232.906 645.494 324.505 622.594 330.457 573.984C336.41 525.373 332.938 448.737 330.457 416.496M187.851 650.867C195.291 648.387 194.051 647.147 195.291 643.427C196.531 639.707 194.051 623.586 197.771 554.143C201.491 484.699 217.612 441.297 241.173 409.056C260.022 383.262 308.55 403.269 330.457 416.496M330.457 416.496C366.833 432.203 445.783 491.148 470.584 601.265C501.586 738.912 544.988 826.956 631.792 877.798C684.437 908.633 831.953 989.64 969.224 1056.37M1745.37 1103.49C1745.37 1106.8 1745.37 1115.15 1745.37 1122.09C1745.37 1129.03 1740.41 1134.08 1737.93 1135.73L1620.12 1150.61C1453.95 1174.17 1326.23 1185.33 1194.78 1150.61C1143.05 1136.95 1058.3 1099.66 969.224 1056.37M1745.37 1103.49L2169.47 1046.45L2164.51 860.437M1745.37 1103.49V915M2164.51 860.437C2142.19 848.45 2096.3 824.724 2091.34 825.716C2086.38 826.708 1824.73 857.544 1694.52 872.838M2164.51 860.437L1739.17 909.858M1694.52 872.838L1674.68 860.437C1672.62 858.784 1665.75 855.477 1654.84 855.477C1641.2 855.477 1472.55 867.878 1394.43 861.677C1316.31 855.477 1269.18 850.517 1194.78 817.035C1337.8 813.728 1639.22 807.115 1700.72 807.115C1777.61 807.115 2009.5 808.355 2106.22 807.115C2202.95 805.875 2221.55 825.716 2237.67 840.596C2253.79 855.477 2299.67 908.8 2293.47 1010.48M1694.52 872.838L1739.17 909.858M2293.47 1010.48C2293.06 996.844 2287.27 969.067 2267.43 967.083C2242.63 964.602 2190.55 1015.44 2174.43 1084.89C2158.31 1154.33 2173.19 1203.93 2217.83 1179.13C2253.54 1159.29 2265.78 1123.74 2267.43 1108.45C2285.21 1090.68 2319.27 1040 2313.31 979.483C2305.87 903.84 2286.03 838.116 2217.83 803.395C2263.3 802.155 2368.62 796.45 2426.16 783.554C2483.7 770.657 2532.8 753.379 2550.17 746.352C2535.7 763.713 2502.79 806.867 2486.92 840.596C2467.08 882.758 2443.52 979.483 2439.8 1010.48C2436.08 1041.49 2439.8 1058.85 2426.16 1051.41C2418.27 1047.1 2413.28 1039.06 2408.8 1031.13M2293.47 1010.48C2290.58 1026.19 2283.3 1060.58 2277.35 1072.49C2269.91 1087.37 2251.31 1097.29 2238.91 1096.05C2228.99 1095.06 2223.2 1089.02 2221.55 1086.13C2233.95 1081.58 2259.99 1069.51 2264.95 1057.61C2271.15 1042.73 2262.47 1015.44 2253.79 1010.48C2245.11 1005.52 2216.59 1014.2 2197.99 1057.61C2179.39 1101.01 2176.91 1108.45 2178.15 1125.81C2179.39 1143.17 2190.55 1151.85 2204.19 1148.13C2217.83 1144.41 2230.23 1128.29 2230.23 1112.17C2226.1 1111.76 2215.1 1107.95 2204.19 1096.05M2412.52 1063.81C2412.11 1070.42 2410.78 1090.1 2408.8 1115.89C2406.32 1148.13 2392.68 1150.61 2371.6 1125.81C2350.52 1101.01 2340.59 1042.73 2329.43 979.483C2318.27 916.24 2343.08 931.121 2361.68 944.762C2380.28 958.402 2390.2 1005.52 2398.88 1015.44C2402.54 1019.63 2405.53 1025.35 2408.8 1031.13M2412.52 1063.81C2422.03 1072.49 2442.53 1084.64 2448.48 1063.81C2455.92 1037.77 2469.56 891.439 2537.76 803.395C2592.33 732.959 2622.5 714.524 2630.77 714.11C2678.3 690.136 2784.04 636.483 2826.7 613.665C2880.02 585.144 3058.59 497.1 3075.95 440.057C3093.31 383.014 3064.79 359.453 3041.23 343.332C3017.67 327.212 2908.54 285.05 2830.42 255.288C2752.29 225.527 2586.13 179.644 2455.92 146.163C2325.71 112.681 2082.66 68.039 1985.94 54.3984C1889.21 40.7577 1673.44 19.6767 1646.16 15.9565C1618.88 12.2363 1599.04 8.51614 1599.04 28.3571C1599.04 48.1981 1599.04 60.5987 1628.8 64.3188C1658.56 68.039 1844.57 86.6399 1902.85 94.0803C1961.14 101.521 2267.43 157.323 2391.44 185.845C2515.44 214.366 2757.26 288.77 2841.58 316.051C2909.04 337.876 2963.93 361.52 2982.95 370.614M2412.52 1063.81C2411.28 1063.81 2407.31 1064.55 2401.36 1067.53C2393.92 1071.25 2390.2 1063.81 2392.68 1057.61C2394.66 1052.65 2401.77 1048.1 2405.08 1046.45L2398.88 1042.73L2408.8 1031.13M2982.95 370.614C2997.22 371.931 3018.5 376.396 3034.14 385.494M2982.95 370.614C2982.95 376.173 2982.95 386.164 2982.95 392.935M3053.63 421.456C3054.87 414.016 3021.39 407.815 3012.71 407.815C3004.03 407.815 2982.95 404.095 2982.95 399.135C2982.95 397.976 2982.95 395.73 2982.95 392.935M3053.63 421.456C3052.39 428.897 3032.55 452.458 3012.71 464.858C2992.87 477.259 2846.54 571.503 2666.73 653.347C2486.92 735.191 2361.68 766.193 2195.51 763.713C2029.34 761.233 1843.33 766.193 1570.52 763.713C1297.7 761.233 1284.06 763.713 1233.22 763.713C1192.55 763.713 1174.11 754.619 1169.98 750.072M3053.63 421.456C3057.35 405.174 3047.95 393.528 3034.14 385.494M1169.98 750.072C1169.15 739.325 1162.04 716.59 1140.22 711.63C1131.68 709.689 1121.07 707.141 1109.84 705.43M1169.98 750.072C1141.46 764.953 1095.57 763.713 1059.61 755.032M1042.25 721.551C1036.05 729.818 1030.84 748.088 1059.61 755.032M1042.25 721.551C1053.92 706.646 1072.69 702.917 1091.85 703.638M1745.37 915C1713.12 918.72 1623.1 928.641 1520.92 938.561C1393.19 950.962 1279.1 929.881 1219.58 910.04C1171.96 894.167 1035.22 819.102 972.809 783.554C968.799 781.056 964.663 778.477 960.408 775.82M1745.37 915L1739.17 909.858M1059.61 755.032C1038.12 756.272 992.898 759.001 983.969 759.993C972.809 761.233 961.648 765.605 960.408 775.82M1091.85 703.638C1090.61 703.597 1054.65 707.91 1063.33 719.071C1072.01 730.231 1086.89 731.471 1100.53 731.471C1114.18 731.471 1134.02 727.928 1134.02 719.071C1134.02 711.984 1117.9 707.024 1109.84 705.43M1091.85 703.638C1097.88 703.865 1103.95 704.532 1109.84 705.43M960.408 775.82C956.691 804.374 952.7 857.653 954.154 917.48M969.224 1056.37C960.255 1015.22 955.978 970.628 954.488 928.641M954.154 917.48C992.201 939.801 1083.67 992.38 1145.18 1024.13C1147.66 1027.43 1150.14 1033.8 1140.22 1032.81C1127.82 1031.57 1010.57 964.602 954.488 928.641M954.154 917.48C954.244 921.177 954.355 924.898 954.488 928.641M3034.14 385.494V402.855C3030.72 403.269 3020.15 403.103 3005.27 399.135C2990.39 395.167 2984.19 393.348 2982.95 392.935" stroke="white" stroke-width="25"/>
<path d="M1527.01 1062.57C1527.01 1101.11 1492.15 1134.39 1446.51 1134.39C1400.87 1134.39 1366 1101.11 1366 1062.57C1366 1024.03 1400.87 990.744 1446.51 990.744C1492.15 990.744 1527.01 1024.03 1527.01 1062.57Z" stroke="white" stroke-width="25"/>
<mask id="path-4-inside-1" fill="white">
<ellipse cx="1410.55" cy="1046.45" rx="22.3211" ry="23.5611"/>
</mask>
<path d="M1407.87 1046.45C1407.87 1046.49 1407.87 1046.24 1408.18 1045.91C1408.34 1045.75 1408.62 1045.52 1409.04 1045.33C1409.49 1045.13 1410.02 1045.01 1410.55 1045.01V1095.01C1437.94 1095.01 1457.87 1071.98 1457.87 1046.45H1407.87ZM1410.55 1045.01C1411.07 1045.01 1411.6 1045.13 1412.05 1045.33C1412.48 1045.52 1412.75 1045.75 1412.91 1045.91C1413.23 1046.24 1413.23 1046.49 1413.23 1046.45H1363.23C1363.23 1071.98 1383.16 1095.01 1410.55 1095.01V1045.01ZM1413.23 1046.45C1413.23 1046.41 1413.23 1046.65 1412.91 1046.98C1412.75 1047.15 1412.48 1047.38 1412.05 1047.57C1411.6 1047.77 1411.07 1047.89 1410.55 1047.89V997.887C1383.16 997.887 1363.23 1020.92 1363.23 1046.45H1413.23ZM1410.55 1047.89C1410.02 1047.89 1409.49 1047.77 1409.04 1047.57C1408.62 1047.38 1408.34 1047.15 1408.18 1046.98C1407.87 1046.65 1407.87 1046.41 1407.87 1046.45H1457.87C1457.87 1020.92 1437.94 997.887 1410.55 997.887V1047.89Z" fill="white" mask="url(#path-4-inside-1)"/>
<path d="M1469.97 1061.33C1469.97 1078.32 1453.78 1094.71 1430.39 1094.71C1406.99 1094.71 1390.8 1078.32 1390.8 1061.33C1390.8 1044.33 1406.99 1027.95 1430.39 1027.95C1453.78 1027.95 1469.97 1044.33 1469.97 1061.33Z" stroke="white" stroke-width="25"/>
<ellipse cx="3013.95" cy="356.974" rx="16.1208" ry="6.2003" stroke="white" stroke-width="25"/>
</svg>
