<svg width="256" height="256" viewBox="0 0 256 256" fill="none" xmlns="http://www.w3.org/2000/svg">
<path d="M80.6973 147.271C91.3404 147.271 99.9683 138.643 99.9683 128C99.9683 117.357 91.3404 108.729 80.6973 108.729C70.0542 108.729 61.4263 117.357 61.4263 128C61.4263 138.643 70.0542 147.271 80.6973 147.271Z" fill="#31359B"/>
<path fill-rule="evenodd" clip-rule="evenodd" d="M255.339 141.087C248.784 205.632 194.274 256 128 256C57.3075 256 0 198.693 0 128C0 57.3076 57.3075 1.12023e-05 128 0C141.255 1.17096e-06 154.039 2.01465 166.063 5.75456C218.168 21.9608 256 70.5623 256 128C256 132.418 255.776 136.784 255.339 141.087ZM128 25.6C71.446 25.6 25.6 71.4461 25.6 128C25.6 184.554 71.446 230.4 128 230.4V25.6ZM196.97 128C196.97 137.523 189.25 145.242 179.727 145.242C170.205 145.242 162.485 137.523 162.485 128C162.485 118.477 170.205 110.758 179.727 110.758C189.25 110.758 196.97 118.477 196.97 128Z" fill="#31359B"/>
</svg>
