<svg width="1461" height="3350" viewBox="0 0 1461 3350" fill="none" xmlns="http://www.w3.org/2000/svg">
<mask id="mask0" mask-type="alpha" maskUnits="userSpaceOnUse" x="0" y="0" width="3350" height="3350">
<path fill-rule="evenodd" clip-rule="evenodd" d="M1674.53 334.906C934.676 334.906 334.906 934.676 334.906 1674.53C334.906 2414.38 934.676 3014.15 1674.53 3014.15V334.906ZM2012.01 34.0296C2775.06 190.165 3349.06 865.308 3349.06 1674.53C3349.06 1790.13 3337.34 1903 3315.03 2012.01C3158.89 2775.06 2483.75 3349.06 1674.53 3349.06C749.708 3349.06 0 2599.35 0 1674.53C0 749.708 749.708 0 1674.53 0C1790.13 0 1903 11.7218 2012.01 34.0296ZM2491.72 1674.53C2491.72 1767.01 2416.75 1841.98 2324.27 1841.98C2231.78 1841.98 2156.81 1767.01 2156.81 1674.53C2156.81 1582.05 2231.78 1507.08 2324.27 1507.08C2416.75 1507.08 2491.72 1582.05 2491.72 1674.53ZM1024.79 1841.98C1117.28 1841.98 1192.25 1767.01 1192.25 1674.53C1192.25 1582.05 1117.28 1507.08 1024.79 1507.08C932.308 1507.08 857.34 1582.05 857.34 1674.53C857.34 1767.01 932.308 1841.98 1024.79 1841.98Z" fill="white"/>
</mask>
<g mask="url(#mask0)">
<rect x="-86.8008" width="1674.53" height="3349.06" fill="white"/>
</g>
</svg>
